# xmcd
#
# Track frame offsets: 
#        150
#        21131
#        37667
#        56220
#        76163
#        99213
#        122618
#        140220
#        159424
#        179071
#        198764
#        217568
#        237817
#        257033
#        275395
#        294503
#
# Disc length: 4152 seconds
#
# Revision: 0
# Processed by: cddbd v1.5.1PL0 Copyright (c) Steve Scherf et al.
# Submitted via: ExactAudioCopy v0.95a5
#
DISCID=d3103610
DTITLE=南方二重唱 - 城市新民歌
DYEAR=2002
DGENRE=Country
TTITLE0=相知相守
TTITLE1=不告而别
TTITLE2=飞不到你的天
TTITLE3=不要问我过得好不好
TTITLE4=细说往事
TTITLE5=整个世界都下雨
TTITLE6=深情看世界
TTITLE7=有一首歌
TTITLE8=爱情的天平
TTITLE9=爱要走的时候
TTITLE10=太阳恋爱了
TTITLE11=露水
TTITLE12=一页书
TTITLE13=半首歌
TTITLE14=着火飞蛾
TTITLE15=伤心的位置
EXTD=
EXTT0=
EXTT1=
EXTT2=
EXTT3=
EXTT4=
EXTT5=
EXTT6=
EXTT7=
EXTT8=
EXTT9=
EXTT10=
EXTT11=
EXTT12=
EXTT13=
EXTT14=
EXTT15=
PLAYORDER=
